# xmcd
#
# Track frame offsets: 
#        150
#        19538
#        45510
#        59896
#        95732
#        126409
#        153377
#        172505
#        194732
#
# Disc length: 3009 seconds
#
# Revision: 0
# Processed by: cddbd v1.5.2PL0 Copyright (c) Steve Scherf et al.
# Submitted via: ExactAudioCopy v1.3
#
DISCID=780bbf09
DTITLE=Doug Duffey and Badd - Play The Blues
DYEAR=2019
DGENRE=Blues
TTITLE0=The Things We Used To Do
TTITLE1=Evil
TTITLE2=Have You Ever?
TTITLE3=Big Easy Street Blues
TTITLE4=Talk Of The Town
TTITLE5=My Drivin' Wheel
TTITLE6=Drink It On Down
TTITLE7=You Got That Somethin'
TTITLE8=A Memory Left To Lose
EXTD=
EXTT0=
EXTT1=
EXTT2=
EXTT3=
EXTT4=
EXTT5=
EXTT6=
EXTT7=
EXTT8=
PLAYORDER=
